<svg width="766" height="235" viewBox="0 0 766 235" fill="none" xmlns="http://www.w3.org/2000/svg">
<path d="M25.4667 14.9334C27.2 23.2 33.3333 51.7334 39.0667 78.4C44.8 105.067 49.2 127.067 48.8 127.2C48.4 127.467 43.4667 128.133 38 128.533C23.2 129.867 11.6 131.867 6.53333 134C2 135.867 1.06667 137.733 0.4 146.533L0 151.067L20.6667 157.6C78.9333 175.867 135.467 191.6 175.6 200.667C194.8 204.933 198.133 205.333 218.4 205.333C230.4 205.333 253.867 205.733 270.4 206.267C299.467 207.067 300.533 207.2 299.2 209.6C296.533 214.533 298.8 215.333 302.933 210.933L306.8 206.533L348.133 206.667C403.733 206.667 441.2 208 439.333 209.867C437.2 212 437.733 213.333 440.8 213.333C442.4 213.333 443.867 214.4 444.267 216C445.067 219.067 446.4 219.6 459.333 220.8C471.333 221.867 475.333 223.2 476.267 226.4C476.667 228.267 480.133 229.467 491.467 231.867C508.933 235.6 531.2 235.467 537.2 231.467C540.667 229.333 540.667 229.067 540.8 211.6C540.933 194.267 540.933 194.133 542.8 200.267L544.8 206.533L605.067 206.4C663.867 206.267 683.333 205.6 710.667 202.667C736 200 744.267 197.733 755.333 190.4C769.867 180.933 768.933 171.6 752.4 160.267C749.2 158.133 745.467 156 743.867 155.467C742.267 155.067 739.2 152.267 736.933 149.467C728.267 138.667 711.867 130.533 688 124.933C676.133 122.133 674 122.133 427.467 121.733L179.067 121.2L170.8 117.867C161.333 113.867 146.933 104.533 141.733 99.0667C139.867 97.0667 121.6 74.9334 101.333 50L64.5333 4.66669L56.9333 2.40003C51.8667 0.800026 44.8 2.61885e-05 35.8667 2.61885e-05H22.2667L25.4667 14.9334ZM198.4 148.533C198.8 149.6 198.4 151.467 197.467 152.667C196.133 154.667 195.6 154.667 194.267 152.933C192.4 150.667 193.467 146.667 196 146.667C196.933 146.667 198 147.467 198.4 148.533ZM210.533 148.933C211.067 150.133 210.533 152 209.467 153.2C207.6 154.933 207.333 154.933 206.533 152.933C205.6 150.267 206.667 146.667 208.533 146.667C209.2 146.667 210.133 147.733 210.533 148.933ZM225.067 148.533C225.467 149.6 225.067 151.467 224.133 152.667C222.8 154.667 222.267 154.667 220.933 152.933C219.067 150.667 220.133 146.667 222.667 146.667C223.6 146.667 224.667 147.467 225.067 148.533ZM236 150.667C236 152.4 235.2 154 234.4 154.267C232.267 155.067 230.8 151.467 231.867 148.533C233.067 145.467 236 147.067 236 150.667ZM251.867 148.933C252.4 150.133 251.867 152 250.8 153.2C248.933 154.933 248.667 154.933 247.867 152.933C246.933 150.267 248 146.667 249.867 146.667C250.533 146.667 251.467 147.733 251.867 148.933ZM264.4 150.267C264.933 153.467 260.933 155.6 259.867 152.667C258.8 149.867 260.267 146.4 262.4 146.933C263.2 147.333 264.133 148.8 264.4 150.267ZM288.133 148.667C288.667 149.733 288.533 151.733 288.133 152.933C287.333 154.933 287.067 154.933 285.2 153.2C284.133 152 283.6 150.133 284.133 148.933C285.2 146.133 287.2 146 288.133 148.667ZM304.133 148.667C304.667 149.733 304.533 151.733 304.133 152.933C303.333 154.933 303.067 154.933 301.2 153.2C300.133 152 299.6 150.133 300.133 148.933C301.2 146.133 303.2 146 304.133 148.667ZM392.133 148.667C392.667 149.733 392.667 151.6 392.133 152.667C391.2 155.2 387.333 153.733 387.333 150.8C387.333 146.533 390.8 145.067 392.133 148.667ZM406.933 148.8C407.333 149.867 406.8 151.867 405.6 153.067C403.6 154.933 403.333 154.933 402.533 152.933C401.467 150.133 402.667 146.667 404.667 146.667C405.467 146.667 406.4 147.6 406.933 148.8ZM419.867 148.933C420.4 150.133 419.867 152 418.8 153.2C416.933 154.933 416.667 154.933 415.867 152.933C414.933 150.267 416 146.667 417.867 146.667C418.533 146.667 419.467 147.733 419.867 148.933ZM433.333 150.667C433.333 152.4 432.533 154 431.733 154.267C429.6 155.067 428.133 151.467 429.2 148.533C430.4 145.467 433.333 147.067 433.333 150.667ZM446.667 150.667C446.667 152.4 446 154 445.067 154.267C443.333 154.933 441.467 150 442.667 148C444.133 145.6 446.667 147.333 446.667 150.667ZM460.133 148.667C460.667 149.733 460.533 151.733 460.133 152.933C459.333 154.933 459.067 154.933 457.2 153.2C456.133 152 455.6 150.133 456.133 148.933C457.2 146.133 459.2 146 460.133 148.667ZM473.333 150.667C473.333 154.267 470.4 155.867 469.2 152.8C468.133 149.867 469.6 146.267 471.733 147.067C472.533 147.333 473.333 148.933 473.333 150.667ZM486.667 150.667C486.667 152.4 485.867 154 485.067 154.267C482.933 155.067 481.467 151.467 482.533 148.533C483.733 145.467 486.667 147.067 486.667 150.667ZM497.333 150.667C497.333 154.267 494.4 155.867 493.2 152.8C492.133 149.867 493.6 146.267 495.733 147.067C496.533 147.333 497.333 148.933 497.333 150.667ZM512 150.667C512 154.267 509.067 155.867 507.867 152.8C506.8 149.867 508.267 146.267 510.4 147.067C511.2 147.333 512 148.933 512 150.667ZM525.067 148.267C525.333 149.2 525.067 151.2 524.267 152.533C523.067 155.067 522.933 155.067 521.2 152.8C520.267 151.467 519.867 149.6 520.267 148.533C521.067 146.267 524.267 146.133 525.067 148.267ZM538.533 148.8C539.067 150 538.667 151.867 537.733 152.933C536.4 154.667 535.867 154.667 534.533 152.667C532.667 150.133 533.467 146.667 536 146.667C536.933 146.667 538.133 147.6 538.533 148.8ZM549.333 150.667C549.333 152.4 548.667 154 547.733 154.267C546 154.933 544.133 150 545.333 148C546.8 145.6 549.333 147.333 549.333 150.667ZM563.333 149.867C563.333 151.733 562.8 153.467 562.133 153.867C560.4 155.067 557.867 151.333 558.8 148.8C560.133 145.467 563.333 146.267 563.333 149.867ZM577.6 148.8C578 149.867 577.467 151.867 576.267 153.067C574.267 154.933 574 154.933 573.2 152.933C572.133 150.133 573.333 146.667 575.333 146.667C576.133 146.667 577.067 147.6 577.6 148.8ZM590.8 148.667C591.333 149.733 591.2 151.733 590.8 152.933C590 154.933 589.733 154.933 587.867 153.2C586.8 152 586.267 150.133 586.8 148.933C587.867 146.133 589.867 146 590.8 148.667ZM602.667 148C603.733 149.733 602.133 154.667 600.533 154.667C598.8 154.667 597.6 151.067 598.533 148.667C599.333 146.4 601.467 146 602.667 148ZM615.733 148.533C616.133 149.6 615.733 151.467 614.8 152.667C613.467 154.667 612.933 154.667 611.6 152.933C609.733 150.667 610.8 146.667 613.333 146.667C614.267 146.667 615.333 147.467 615.733 148.533ZM629.2 148.8C629.733 150 629.333 151.867 628.4 152.933C627.067 154.667 626.533 154.667 625.2 152.667C623.333 150.133 624.133 146.667 626.667 146.667C627.6 146.667 628.8 147.6 629.2 148.8ZM643.733 148.267C644 149.2 643.733 151.067 643.067 152.4C641.467 155.6 638 153.067 638.933 149.333C639.733 146.4 642.8 145.733 643.733 148.267ZM714 149.2C716.133 153.333 715.6 154.667 712 154.667C709.333 154.667 708.667 154 708.667 151.6C708.667 146.267 711.6 144.933 714 149.2ZM723.2 151.467C724.533 154.533 724.4 154.8 721.733 154.4C719.467 154.133 718.533 152.933 718.267 150.4C717.733 145.733 720.933 146.533 723.2 151.467ZM733.333 150.667C735.733 153.333 735.6 153.333 732.267 153.333C730.267 153.333 728.667 153.067 728.667 152.8C728.667 152.533 728.267 151.333 727.867 150.133C726.667 147.067 730.4 147.467 733.333 150.667ZM136 150.667C139.867 151.333 137.467 151.733 126.667 152.133C98 153.067 78.6667 153.067 75.3333 152.267C67.4667 150.267 124.8 148.8 136 150.667ZM516.667 178.533C521.467 179.467 519.867 179.733 508 179.867C500 180 479.2 180.4 462 180.8C444.8 181.333 430.933 181.333 431.333 180.933C431.733 180.533 440.4 179.867 450.667 179.333C460.933 178.8 469.6 178.133 469.867 177.867C470.933 176.933 510.667 177.467 516.667 178.533Z" fill="#828282"/>
</svg>
